<?xml version="1.0" encoding="utf-8"?>
<!-- Generator: Adobe Illustrator 22.0.0, SVG Export Plug-In . SVG Version: 6.00 Build 0)  -->
<svg version="1.1" id="Livello_1" xmlns="http://www.w3.org/2000/svg" xmlns:xlink="http://www.w3.org/1999/xlink" x="0px" y="0px"
	 viewBox="0 0 200 23" style="enable-background:new 0 0 200 23;" xml:space="preserve">
<style type="text/css">
	.st0{fill:#FFFFFF;}
</style>
<g>
	<path class="st0" d="M13.7,17.2c-0.8,0.4-2.4,0.8-4.4,0.8c-4.7,0-8.3-3-8.3-8.5c0-5.3,3.6-8.8,8.8-8.8c2.1,0,3.4,0.4,4,0.7
		l-0.5,1.8c-0.8-0.4-2-0.7-3.4-0.7C5.8,2.5,3.2,5,3.2,9.4c0,4.1,2.4,6.8,6.5,6.8c1.3,0,2.7-0.3,3.5-0.7L13.7,17.2z"/>
	<path class="st0" d="M16.3,0h2.2v7.5h0.1c0.3-0.6,0.9-1.2,1.6-1.5c0.6-0.4,1.4-0.6,2.2-0.6c1.6,0,4.2,1,4.2,5.2v7.2h-2.2v-6.9
		c0-1.9-0.7-3.6-2.8-3.6c-1.4,0-2.5,1-2.9,2.2c-0.1,0.3-0.1,0.6-0.1,1v7.3h-2.2V0z"/>
	<path class="st0" d="M30.2,9.4c0-1.4,0-2.6-0.1-3.8H32L32.1,8h0.1c0.5-1.6,1.9-2.6,3.3-2.6c0.3,0,0.4,0,0.6,0.1v2.1
		c-0.2,0-0.5-0.1-0.8-0.1c-1.5,0-2.6,1.2-2.9,2.8c-0.1,0.3-0.1,0.6-0.1,1v6.4h-2.2V9.4z"/>
	<path class="st0" d="M40.9,2.3c0,0.7-0.5,1.3-1.4,1.3c-0.8,0-1.3-0.6-1.3-1.3c0-0.8,0.6-1.4,1.4-1.4C40.4,0.9,40.9,1.5,40.9,2.3z
		 M38.5,17.8V5.7h2.2v12.1H38.5z"/>
	<path class="st0" d="M44,15.5c0.6,0.4,1.8,0.9,2.9,0.9c1.6,0,2.3-0.8,2.3-1.8c0-1-0.6-1.6-2.2-2.2c-2.2-0.8-3.2-2-3.2-3.4
		c0-1.9,1.6-3.5,4.2-3.5c1.2,0,2.3,0.4,3,0.8l-0.6,1.6C49.9,7.4,49.1,7,47.9,7c-1.3,0-2,0.7-2,1.6c0,1,0.7,1.4,2.3,2
		c2.1,0.8,3.2,1.8,3.2,3.6c0,2.1-1.6,3.6-4.5,3.6c-1.3,0-2.5-0.3-3.4-0.8L44,15.5z"/>
	<path class="st0" d="M56.9,2.2v3.5H60v1.7h-3.1v6.5c0,1.5,0.4,2.3,1.6,2.3c0.6,0,1-0.1,1.3-0.1l0.1,1.6c-0.4,0.2-1.1,0.3-1.9,0.3
		c-1,0-1.8-0.3-2.4-0.9c-0.6-0.6-0.9-1.7-0.9-3.1V7.3h-1.9V5.7h1.9V2.8L56.9,2.2z"/>
	<path class="st0" d="M73.3,11.6c0,4.5-3.1,6.4-6,6.4c-3.3,0-5.8-2.4-5.8-6.2c0-4,2.6-6.4,6-6.4C70.9,5.4,73.3,7.9,73.3,11.6z
		 M63.7,11.7c0,2.6,1.5,4.6,3.7,4.6c2.1,0,3.7-2,3.7-4.7c0-2-1-4.6-3.6-4.6C64.8,7,63.7,9.4,63.7,11.7z"/>
	<path class="st0" d="M76.1,9.6c0-1.5-0.1-2.8-0.1-3.9h2L78,7.7h0.1c0.9-1.5,2.3-2.3,4.3-2.3c2.9,0,5.1,2.5,5.1,6.1
		c0,4.3-2.6,6.5-5.5,6.5c-1.6,0-3-0.7-3.7-1.9h0v6.6h-2.2V9.6z M78.2,12.8c0,0.3,0,0.6,0.1,0.9c0.4,1.5,1.7,2.6,3.3,2.6
		c2.3,0,3.7-1.9,3.7-4.7c0-2.4-1.3-4.5-3.6-4.5c-1.5,0-2.9,1.1-3.3,2.7c-0.1,0.3-0.1,0.6-0.1,0.9V12.8z"/>
	<path class="st0" d="M90.3,0h2.2v7.5h0.1c0.3-0.6,0.9-1.2,1.6-1.5c0.6-0.4,1.4-0.6,2.2-0.6c1.6,0,4.2,1,4.2,5.2v7.2h-2.2v-6.9
		c0-1.9-0.7-3.6-2.8-3.6c-1.4,0-2.5,1-2.9,2.2c-0.1,0.3-0.1,0.6-0.1,1v7.3h-2.2V0z"/>
	<path class="st0" d="M105.4,12.1c0.1,3,2,4.2,4.1,4.2c1.6,0,2.5-0.3,3.3-0.6l0.4,1.6c-0.8,0.3-2.1,0.8-4,0.8
		c-3.7,0-5.9-2.4-5.9-6.1c0-3.6,2.1-6.5,5.7-6.5c3.9,0,5,3.5,5,5.7c0,0.4,0,0.8-0.1,1H105.4z M111.8,10.5c0-1.4-0.6-3.6-3-3.6
		c-2.2,0-3.2,2-3.4,3.6H111.8z"/>
	<path class="st0" d="M116.7,9.4c0-1.4,0-2.6-0.1-3.8h1.9l0.1,2.4h0.1c0.5-1.6,1.9-2.6,3.3-2.6c0.3,0,0.4,0,0.6,0.1v2.1
		c-0.2,0-0.4-0.1-0.8-0.1c-1.5,0-2.6,1.2-2.9,2.8c0,0.3-0.1,0.6-0.1,1v6.4h-2.2V9.4z"/>
	<path class="st0" d="M130.2,17.8V0.9h2.4l5.4,8.5c1.2,2,2.2,3.7,3,5.5l0,0c-0.2-2.2-0.3-4.3-0.3-6.9v-7h2v16.8h-2.2l-5.3-8.5
		c-1.2-1.9-2.3-3.8-3.1-5.6l-0.1,0c0.1,2.1,0.2,4.1,0.2,6.9v7.2H130.2z"/>
	<path class="st0" d="M157.6,11.6c0,4.5-3.1,6.4-6,6.4c-3.3,0-5.8-2.4-5.8-6.2c0-4,2.6-6.4,6-6.4C155.2,5.4,157.6,7.9,157.6,11.6z
		 M148,11.7c0,2.6,1.5,4.6,3.7,4.6c2.1,0,3.7-2,3.7-4.7c0-2-1-4.6-3.6-4.6S148,9.4,148,11.7z"/>
	<path class="st0" d="M160,15.5c0.7,0.4,1.8,0.9,2.9,0.9c1.6,0,2.3-0.8,2.3-1.8c0-1-0.6-1.6-2.3-2.2c-2.2-0.8-3.2-2-3.2-3.4
		c0-1.9,1.6-3.5,4.2-3.5c1.2,0,2.3,0.4,3,0.8l-0.5,1.6C166,7.4,165.1,7,164,7c-1.3,0-2,0.7-2,1.6c0,1,0.7,1.4,2.3,2
		c2.1,0.8,3.2,1.8,3.2,3.6c0,2.1-1.6,3.6-4.5,3.6c-1.3,0-2.5-0.3-3.4-0.8L160,15.5z"/>
	<path class="st0" d="M171.5,12.1c0.1,3,2,4.2,4.1,4.2c1.6,0,2.5-0.3,3.3-0.6l0.4,1.6c-0.8,0.3-2.1,0.8-4,0.8
		c-3.7,0-5.9-2.4-5.9-6.1c0-3.6,2.1-6.5,5.7-6.5c3.9,0,5,3.5,5,5.7c0,0.4,0,0.8-0.1,1H171.5z M177.9,10.5c0-1.4-0.6-3.6-3-3.6
		c-2.2,0-3.2,2-3.4,3.6H177.9z"/>
	<path class="st0" d="M184.9,11.2L184.9,11.2c0.3-0.4,0.8-0.9,1.1-1.4l3.5-4.2h2.6l-4.7,5l5.3,7.1h-2.7l-4.2-5.8l-1.1,1.3v4.5h-2.2
		V0h2.2V11.2z"/>
</g>
</svg>
